# xmcd
#
# Track frame offsets: 
#        150
#        10985
#        23367
#        33289
#        45586
#        55071
#        64962
#        78690
#        87667
#        99437
#
# Disc length: 1453 seconds
#
# Revision: 0
# Processed by: cddbd v1.5.2PL0 Copyright (c) Steve Scherf et al.
# Submitted via: ExactAudioCopy v1.0b1
#
DISCID=7505ab0a
DTITLE=Buck Trent - Sounds Of Now And Beyond
DYEAR=1972
DGENRE=Bluegrass
TTITLE0=A Brand New Banjo
TTITLE1=Until Dawn
TTITLE2=Subway
TTITLE3=When You Waltz With Me
TTITLE4=Goin' Home
TTITLE5=Rufus Thibideaux
TTITLE6=The Way I See You
TTITLE7=Clover Bottom
TTITLE8=Splashdown
TTITLE9=John Bearsford Tipton Blues
EXTD=
EXTT0=
EXTT1=
EXTT2=
EXTT3=
EXTT4=
EXTT5=
EXTT6=
EXTT7=
EXTT8=
EXTT9=
PLAYORDER=
